<?xml version="1.0" encoding="UTF-8" standalone="no"?>
<!-- Created with Inkscape (http://www.inkscape.org/) -->

<svg
   xmlns:dc="http://purl.org/dc/elements/1.1/"
   xmlns:cc="http://creativecommons.org/ns#"
   xmlns:rdf="http://www.w3.org/1999/02/22-rdf-syntax-ns#"
   xmlns:svg="http://www.w3.org/2000/svg"
   xmlns="http://www.w3.org/2000/svg"
   xmlns:sodipodi="http://sodipodi.sourceforge.net/DTD/sodipodi-0.dtd"
   xmlns:inkscape="http://www.inkscape.org/namespaces/inkscape"
   width="210mm"
   height="297mm"
   viewBox="0 0 744.09448819 1052.3622047"
   id="svg2"
   version="1.1"
   inkscape:version="0.91 r13725"
   sodipodi:docname="Logo.svg">
  <defs
     id="defs4" />
  <sodipodi:namedview
     id="base"
     pagecolor="#ffffff"
     bordercolor="#666666"
     borderopacity="1.0"
     inkscape:pageopacity="0.0"
     inkscape:pageshadow="2"
     inkscape:zoom="0.35"
     inkscape:cx="-66.428571"
     inkscape:cy="520"
     inkscape:document-units="px"
     inkscape:current-layer="layer1"
     showgrid="false"
     inkscape:window-width="1366"
     inkscape:window-height="705"
     inkscape:window-x="-8"
     inkscape:window-y="-8"
     inkscape:window-maximized="1" />
  <metadata
     id="metadata7">
    <rdf:RDF>
      <cc:Work
         rdf:about="">
        <dc:format>image/svg+xml</dc:format>
        <dc:type
           rdf:resource="http://purl.org/dc/dcmitype/StillImage" />
        <dc:title></dc:title>
      </cc:Work>
    </rdf:RDF>
  </metadata>
  <g
     inkscape:label="Capa 1"
     inkscape:groupmode="layer"
     id="layer1">
    <ellipse
       style="fill:#008080"
       id="path3379"
       cx="392.85718"
       cy="519.50507"
       rx="198.57143"
       ry="187.14285" />
    <path
       style="fill:#000080"
       d="M 368.70501,212.16189 A 187.14285,198.57143 86.677219 0 0 181.3155,410.49916 187.14285,198.57143 86.677219 0 0 183.4397,428.24964 187.14285,198.57143 86.677219 0 1 370.85783,249.24202 187.14285,198.57143 86.677219 0 1 577.81903,406.81007 187.14285,198.57143 86.677219 0 0 577.79043,387.4804 187.14285,198.57143 86.677219 0 0 368.70502,212.16189 Z"
       id="path3379-2"
       inkscape:connector-curvature="0" />
    <path
       inkscape:connector-curvature="0"
       style="fill:#00ff00"
       d="m 140.85559,692.75156 a 198.57143,187.14285 52.276076 0 0 269.52053,42.55824 198.57143,187.14285 52.276076 0 0 13.44581,-11.78141 198.57143,187.14285 52.276076 0 1 -253.58774,-53.50278 198.57143,187.14285 52.276076 0 1 13.08009,-259.78748 198.57143,187.14285 52.276076 0 0 -15.93277,10.94455 198.57143,187.14285 52.276076 0 0 -26.52592,271.56888 z"
       id="path3379-2-1" />
    <path
       style="fill:#5d0097;fill-opacity:1"
       d="m 672.77071,650.25643 a 187.14285,198.57143 25.267971 0 0 -84.4768,-259.45361 187.14285,198.57143 25.267971 0 0 -16.60252,-6.62931 187.14285,198.57143 25.267971 0 1 67.4905,250.22853 187.14285,198.57143 25.267971 0 1 -237.39555,106.32021 187.14285,198.57143 25.267971 0 0 16.9863,9.22509 187.14285,198.57143 25.267971 0 0 253.99807,-99.69091 z"
       id="path3379-2-5"
       inkscape:connector-curvature="0" />
    <text
       xml:space="preserve"
       style="font-style:normal;font-variant:normal;font-weight:normal;font-stretch:semi-expanded;font-size:80px;line-height:125%;font-family:Ravie;-inkscape-font-specification:'Ravie Semi-Expanded';letter-spacing:0px;word-spacing:0px;fill:#000000;fill-opacity:1;stroke:none;stroke-width:1px;stroke-linecap:butt;stroke-linejoin:miter;stroke-opacity:1;"
       x="285.71426"
       y="549.505"
       id="text4242"
       sodipodi:linespacing="125%"><tspan
         sodipodi:role="line"
         id="tspan4244"
         x="285.71426"
         y="549.505">CIGG</tspan></text>
    <path
       style="fill:#808000;fill-opacity:0"
       id="path5728"
       d="m 541.72113,539.89825 c 6.05119,-0.24496 11.92275,1.24538 17.87932,2.06543 6.40629,0.36472 10.58774,2.3871 15.62922,6.06524 3.58532,3.30213 6.01708,7.84808 2.99552,12.25243 -15.90441,9.19978 -31.01662,21.13363 -49.00102,25.81186 -5.8054,0.98219 -11.08692,3.67176 -16.70471,5.32723 -6.43247,2.60122 -12.59728,5.8006 -19.15371,8.08277 -6.51096,1.83166 -12.77521,4.38642 -19.32741,6.1047 -6.3807,1.62024 -12.58212,3.53623 -19.16569,4.20117 -6.55551,0.34171 -12.98352,0.53477 -19.43486,1.74026 -7.08691,0.58926 -14.02751,1.94346 -21.0319,3.10439 -6.40631,1.04538 -12.89282,1.33567 -19.37092,1.48305 -3.82464,0.39649 -7.77348,-0.37028 -11.5873,0.0593 -0.0109,10e-4 -4.64441,1.15568 -4.69666,1.16869 -5.11527,0.85704 -10.14514,1.47247 -15.1897,2.66679 -4.51033,2.71765 -9.53902,3.7282 -14.69356,4.30655 -6.91936,0.39153 -13.85405,0.36045 -20.78211,0.3914 -7.28395,-0.19696 -14.4821,-1.65768 -21.75823,-2.27965 -7.37176,-0.56823 -14.76805,-0.57505 -22.15635,-0.64478 -5.02349,-0.67143 -2.53964,-0.32351 -7.45181,-1.04187 0,0 34.22832,-24.18169 34.22832,-24.18169 l 0,0 c 4.73014,0.56783 2.35295,0.3557 7.13176,0.63431 7.45675,0.0638 14.92361,0.25418 22.35192,0.94369 7.17913,0.74212 14.32487,2.10045 21.56605,1.90794 6.87131,-0.0324 13.79047,0.0116 20.59746,-1.04624 5.01387,-1.02682 9.60154,-3.09436 14.49701,-4.49432 5.07781,-1.06607 10.27233,-1.43506 15.32958,-2.63816 5.48937,-0.8063 11.0527,-0.30051 16.58225,-0.59125 6.32447,-0.24543 12.64378,-0.70785 18.88115,-1.83582 7.03803,-1.21618 14.09988,-2.15747 21.16747,-3.17324 6.45535,-0.89931 12.98892,-0.66801 19.44186,-1.63185 6.35704,-1.15389 12.5188,-3.04275 18.77514,-4.63473 6.42086,-1.99038 12.73777,-4.30531 19.1272,-6.39302 6.4591,-2.65149 12.73824,-5.76953 19.36751,-7.99018 5.54678,-1.96452 11.07481,-3.95122 16.80453,-5.33728 2.40415,-0.87153 4.84681,-1.75455 7.18818,-2.78548 0.64367,-0.28342 2.49111,-1.30498 1.88371,-0.95045 -37.82713,22.07899 -45.5884,27.05966 -32.97754,19.01654 5.22382,-0.25947 4.39291,-1.60955 0.9119,-4.89217 -4.30836,-3.02569 -9.17107,-4.01797 -14.38592,-4.487 -5.89956,-0.92885 -11.773,-1.96934 -17.778,-1.37662 0,0 34.31034,-24.92791 34.31034,-24.92791 z"
       inkscape:connector-curvature="0" />
    <path
       style="fill:#808000;fill-opacity:0"
       id="path5730"
       d="m 547.74099,542.78168 c 7.47366,-0.25371 14.80397,0.62455 22.18582,1.64006 5.86843,0.49134 11.60399,1.12649 16.09364,5.19995 3.91318,4.9972 3.91324,11.49372 4.1009,17.55866 0.23759,6.8529 0.63092,13.53776 -1.91886,19.99698 -8.04417,14.20906 -44.43207,29.33397 -47.48889,31.07592 -3.97714,2.2664 -4.82977,2.44667 -9.1189,4.19634 -9.64263,3.33916 -19.8084,4.43285 -29.94062,4.89277 -7.90784,0.28685 -15.82263,0.33009 -23.73466,0.26534 -6.62922,-0.0369 -13.25858,-0.0275 -19.88787,-0.0224 -9.00463,-0.0723 -18.00869,-0.17483 -27.0136,-0.20795 -10.6873,-0.002 -21.37439,0.002 -32.06153,0.0793 -7.73827,0.0428 -15.47672,0.0656 -23.2151,0.0998 -6.6875,-0.003 -13.37498,-0.006 -20.06254,0.0105 -23.31497,1.37643 -46.76788,1.42263 -70.13737,1.87975 -83.5628,1.0816 -167.09061,2.47427 -250.576142,6.3275 -70.383914,3.15123 -140.698738,7.61463 -211.029928,11.73586 -18.75019,-0.42603 -39.85651,4.27056 -57.79927,-3.64316 -1.81329,-0.79975 -3.42669,-1.99205 -5.14003,-2.98808 -6.30768,-5.00085 -12.05303,-13.62797 -12.19147,-21.99454 -0.0562,-3.39416 0.58868,-6.76368 0.88302,-10.14552 1.54653,-5.8608 2.71425,-11.8349 4.6396,-17.5824 6.37395,-19.0274 17.61401,-45.09268 25.75572,-62.72649 16.1815,-35.04685 34.31263,-69.13395 52.53522,-103.14317 9.72435,-17.22752 16.22889,-29.39647 26.68704,-45.71576 6.49028,-10.12768 13.4947,-20.69082 22.47835,-28.89217 18.453659,-16.8467 50.378615,-29.59111 68.770836,-39.11674 9.646585,-2.44436 19.186405,-5.35732 28.939757,-7.33309 54.347371,-11.0093 110.745364,-13.72086 166.028867,-11.03026 15.25528,0.74246 30.45017,2.42624 45.67525,3.63936 66.70361,8.05461 131.77557,26.33201 194.53662,49.96284 4.55628,1.82164 9.11257,3.64327 13.66886,5.4649 0,0 -32.56245,21.65491 -32.56245,21.65491 l 0,0 c -4.19041,-2.02704 -8.38083,-4.05408 -12.57125,-6.08112 -59.79306,-26.72991 -122.95945,-45.63391 -188.19779,-53.04401 -15.18186,-1.16216 -30.33307,-2.83918 -45.54557,-3.4865 -56.207732,-2.39172 -113.7997502,1.15465 -168.674624,14.15559 -10.148316,2.40433 -20.011174,5.88469 -30.01676,8.82703 3.405996,-2.94337 14.480132,-10.27871 10.21799,-8.83012 -8.429754,2.86505 -21.861479,16.73833 -27.325687,23.23817 -16.161379,19.22446 -28.170699,41.68641 -41.430049,62.8509 -28.92062,51.29887 -59.44223,105.64275 -74.4345,162.97457 -1.38464,5.295 -2.03927,10.75446 -3.05891,16.13169 -0.14947,2.88666 -0.56748,5.77191 -0.44843,8.65999 0.31055,7.53374 4.56484,14.47085 10.34853,18.97758 17.65005,9.65626 38.78114,6.81175 58.13133,7.30291 68.727837,-1.57901 137.3872951,-4.89125 206.054451,-8.10666 31.781775,-1.44012 59.689749,-2.81577 91.498389,-3.81073 54.28666,-1.69808 108.63132,-1.93855 162.85993,-5.27583 15.71727,-0.999 32.96593,-1.98628 48.82416,-3.33487 4.17865,-0.35535 8.34481,-0.84489 12.51721,-1.26733 2.19065,-0.22905 4.37747,-0.49822 6.57194,-0.68714 3.23519,-0.27853 4.36059,-0.22603 7.50733,-0.24316 6.67791,0.0163 13.35575,0.0138 20.03359,0.0105 7.6469,0.0342 15.29386,0.0569 22.94065,0.0995 10.6149,0.0785 21.22975,0.0794 31.84481,0.0783 9.19188,-0.0331 18.38295,-0.13936 27.5747,-0.19062 6.59345,0.0284 13.18674,0.0815 19.78018,0.11231 7.77553,-8.6e-4 15.55751,0.13649 23.32548,-0.29815 9.87736,-0.74318 19.79503,-2.01472 28.9635,-6.01085 13.46709,-6.4409 34.84259,-20.10732 -22.70799,13.78834 -2.29631,1.35246 12.73998,-6.55797 8.44163,-5.92374 3.70289,-5.92172 3.21205,-11.38559 2.95121,-18.18761 -0.17815,-4.69268 0.27453,-10.30075 -2.63833,-14.25457 -4.22948,-2.85614 -9.662,-2.63751 -14.51961,-3.49045 -7.363,-1.02905 -14.72025,-1.42066 -22.15575,-0.94766 0,0 34.23797,-24.87534 34.23797,-24.87534 z"
       inkscape:connector-curvature="0" />
    <path
       style="fill:#808000;fill-opacity:0"
       id="path5732"
       d="m 180.38311,174.33337 c -0.92796,8.15192 -2.07936,16.2815 -2.78386,24.45576 -7.05506,81.85942 -6.38963,164.24317 -5.83272,246.3196 0.62676,57.89221 3.18805,115.73321 5.19283,173.58663 0.65213,21.15018 1.36762,42.28139 0.35253,63.42398 -0.29386,13.79224 -1.85677,27.48596 -3.18288,41.20121 -0.9019,8.49814 -0.76516,17.05878 -1.36388,25.57179 -6.04123,29.04226 -8.57039,58.61147 -11.08514,88.1312 -2.83344,41.76121 -3.93938,83.62915 -3.82416,125.48135 0.0377,10.95621 0.20592,21.91049 0.45888,32.86356 0,0 -36.79215,18.73105 -36.79215,18.73105 l 0,0 c 0.32693,-11.2735 0.68151,-22.54694 1.22507,-33.81244 2.13021,-42.47769 4.69309,-84.92845 7.23543,-127.38334 0.87058,-17.21418 1.81451,-34.42481 2.61091,-51.64257 0.18599,-4.02101 0.66021,-20.06141 1.27645,-26.2027 0.25507,-2.54188 1.08823,-5.00244 1.28791,-7.55494 1.42974,-8.48098 0.52516,-17.25447 1.93391,-25.77147 1.40665,-13.7938 3.62501,-27.50166 3.98441,-41.3912 1.24084,-21.35087 1.22473,-42.72209 1.51846,-64.10355 1.12121,-59.23204 2.53271,-118.46106 2.83692,-177.70529 0.32312,-88.6664 1.89406,-177.39809 -1.46791,-266.02203 0,0 36.41899,-18.1766 36.41899,-18.1766 z"
       inkscape:connector-curvature="0" />
  </g>
</svg>
